<svg width="20" height="20" viewBox="0 0 20 20" fill="none" xmlns="http://www.w3.org/2000/svg">
<path fill-rule="evenodd" clip-rule="evenodd" d="M4.99181 0.294581C6.25481 1.21558 7.21081 2.50958 8.02481 3.69858L8.66281 4.63658C8.86093 4.92614 8.95159 5.27586 8.91908 5.62521C8.88657 5.97455 8.73296 6.30154 8.48481 6.54958L7.12881 7.90558L7.27181 8.20958C7.62181 8.91858 8.22581 9.93958 9.13481 10.8496C9.76249 11.4678 10.4701 11.9992 11.2388 12.4296L11.6058 12.6266L11.9328 12.7886L12.0788 12.8556L13.4338 11.4996C13.6828 11.2509 14.0113 11.0975 14.3618 11.0663C14.7123 11.035 15.0627 11.1279 15.3518 11.3286L16.3658 12.0316C17.5178 12.8416 18.7208 13.7646 19.6558 14.9626C19.8174 15.1705 19.9203 15.418 19.9535 15.6792C19.9867 15.9405 19.9492 16.2058 19.8448 16.4476C19.0078 18.4006 16.8898 20.0636 14.6868 19.9816L14.3868 19.9656L14.1538 19.9456L13.8958 19.9156L13.6148 19.8776L13.3098 19.8266L12.9838 19.7626L12.6378 19.6856L12.2718 19.5916L11.8868 19.4816L11.4848 19.3516C9.63881 18.7256 7.29581 17.4956 4.89181 15.0916C2.48881 12.6886 1.25881 10.3456 0.632811 8.49958L0.502811 8.09758L0.392811 7.71258L0.298811 7.34658L0.220811 7.00058C0.198282 6.89222 0.17728 6.78354 0.157811 6.67458L0.107811 6.36958L0.0678111 6.08858L0.0388112 5.83058L0.0188111 5.59758L0.00281118 5.29758C-0.0781888 3.10158 1.60281 0.968581 3.54681 0.135581C3.78079 0.0345477 4.03701 -0.00391867 4.29034 0.0239563C4.54367 0.0518313 4.7854 0.14509 4.99181 0.294581ZM4.06481 2.10258C2.99281 2.66258 1.95481 3.94258 2.00181 5.22358L2.02181 5.55158L2.04381 5.75658L2.07281 5.98658L2.11281 6.23958L2.16381 6.51658L2.22881 6.81458L2.30881 7.13458L2.40481 7.47358L2.51881 7.83158C2.56081 7.95358 2.60481 8.07858 2.65281 8.20658L2.80681 8.59858L2.98281 9.00558C3.61081 10.3876 4.63481 12.0056 6.30781 13.6776C7.97981 15.3496 9.59781 16.3746 10.9798 17.0026L11.3868 17.1786L11.7788 17.3326C11.9068 17.3806 12.0318 17.4246 12.1538 17.4666L12.5118 17.5806L12.8518 17.6766L13.1708 17.7566L13.4688 17.8216L13.7458 17.8726L13.9998 17.9126L14.2298 17.9426L14.4338 17.9626L14.7618 17.9826C16.0258 18.0296 17.3158 16.9976 17.8738 15.9396C17.1618 15.1046 16.2778 14.4196 15.3028 13.7296L14.5548 13.2086L14.3648 13.4076L13.9588 13.8506L13.7438 14.0766C13.1578 14.6736 12.4738 15.1806 11.6538 14.8496L11.4278 14.7546L11.1518 14.6306L10.9978 14.5576L10.6598 14.3886L10.2888 14.1886C9.34994 13.6661 8.48638 13.0185 7.72181 12.2636C6.96689 11.499 6.31931 10.6354 5.79681 9.69658L5.59681 9.32658L5.42681 8.98758L5.23081 8.55758L5.13481 8.32958C4.82381 7.56058 5.25181 6.91158 5.79881 6.34958L6.02281 6.12958L6.57981 5.61658L6.77981 5.42658L6.30681 4.73358C5.60381 3.71358 4.91681 2.79358 4.06381 2.10158L4.06481 2.10258ZM11.9538 1.66758C12.126 1.4954 12.3551 1.39197 12.5981 1.37669C12.8412 1.36141 13.0814 1.43533 13.2738 1.58458L13.3678 1.66758L15.1348 3.43558L16.9028 1.66758C17.0828 1.48823 17.3242 1.38411 17.5782 1.37635C17.8321 1.3686 18.0795 1.4578 18.2701 1.62583C18.4607 1.79386 18.5801 2.02813 18.6042 2.28106C18.6283 2.53398 18.5552 2.78659 18.3998 2.98758L18.3168 3.08158L16.5488 4.84958L18.3168 6.61758C18.4962 6.79754 18.6003 7.03902 18.608 7.29296C18.6158 7.54691 18.5266 7.79429 18.3586 7.98486C18.1905 8.17542 17.9563 8.29489 17.7033 8.31898C17.4504 8.34307 17.1978 8.26999 16.9968 8.11458L16.9028 8.03158L15.1348 6.26358L13.3668 8.03158C13.1869 8.21093 12.9454 8.31505 12.6914 8.32281C12.4375 8.33056 12.1901 8.24137 11.9995 8.07333C11.809 7.9053 11.6895 7.67103 11.6654 7.41811C11.6413 7.16518 11.7144 6.91257 11.8698 6.71158L11.9528 6.61758L13.7208 4.84958L11.9528 3.08158C11.7653 2.89405 11.66 2.63974 11.66 2.37458C11.66 2.10942 11.7653 1.85511 11.9528 1.66758H11.9538Z" fill="black"/>
</svg>
