<svg width="375" height="93" viewBox="0 0 375 93" fill="none" xmlns="http://www.w3.org/2000/svg">
<path d="M92.1779 50H101M63 23.5625L71.3864 6.85912C72.5742 4.49334 74.9949 3 77.6421 3H94.5463C96.9793 3 99.2377 4.26328 100.511 6.33641L109.736 21.3552C110.611 22.7795 111.966 23.8438 113.557 24.3555L123.143 27.4381C126.037 28.3689 128 31.0616 128 34.102V40V43.6667C128 47.1645 125.164 50 121.667 50V50" stroke="#60BFA0" stroke-width="4.5" stroke-linecap="round"/>
<path d="M32.4258 33.0977C33.8581 33.0977 35.1927 33.3092 36.4297 33.7324C37.6667 34.123 38.5618 34.5299 39.1152 34.9531V39.25C38.4316 38.7292 37.5039 38.2246 36.332 37.7363C35.1602 37.248 33.9557 37.0039 32.7188 37.0039C31.1888 37.0039 30.0332 37.362 29.252 38.0781C28.5033 38.7943 28.1289 39.543 28.1289 40.3242C28.1289 40.9427 28.3405 41.5775 28.7637 42.2285C29.2194 42.847 30.0007 43.3516 31.1074 43.7422L35.209 45.207C36.804 45.7604 37.9922 46.5579 38.7734 47.5996C39.5547 48.6413 39.9453 49.862 39.9453 51.2617C39.9453 52.6289 39.5547 53.8822 38.7734 55.0215C38.0247 56.1608 36.9668 57.0723 35.5996 57.7559C34.265 58.4069 32.7188 58.7324 30.9609 58.7324C30.0169 58.7324 29.0241 58.6022 27.9824 58.3418C26.9733 58.1139 26.0618 57.8372 25.248 57.5117C24.4342 57.1536 23.832 56.8444 23.4414 56.584V52.2871C23.8971 52.6126 24.5319 52.987 25.3457 53.4102C26.1921 53.8008 27.0872 54.1426 28.0312 54.4355C28.9753 54.696 29.8542 54.8262 30.668 54.8262C32.1979 54.8262 33.4023 54.4844 34.2812 53.8008C35.1927 53.1172 35.6484 52.2708 35.6484 51.2617C35.6484 50.4805 35.3392 49.862 34.7207 49.4062C34.1348 48.9505 33.2721 48.5111 32.1328 48.0879L28.5195 46.7695C26.6315 46.0534 25.3783 45.1582 24.7598 44.084C24.1413 42.9772 23.832 41.724 23.832 40.3242C23.832 38.2409 24.6133 36.5156 26.1758 35.1484C27.7383 33.7812 29.8216 33.0977 32.4258 33.0977ZM57.084 33.0977C58.8743 33.0977 60.4206 33.3906 61.7227 33.9766C63.0247 34.5299 63.9199 35.0345 64.4082 35.4902V39.543C63.4967 38.8594 62.4551 38.2734 61.2832 37.7852C60.1113 37.2643 58.7116 37.0039 57.084 37.0039C55.3587 37.0039 53.8451 37.4271 52.543 38.2734C51.2409 39.0872 50.2318 40.1777 49.5156 41.5449C48.832 42.8796 48.4902 44.3444 48.4902 45.9395C48.4902 47.502 48.832 48.9668 49.5156 50.334C50.2318 51.6686 51.2409 52.7591 52.543 53.6055C53.8451 54.4193 55.3587 54.8262 57.084 54.8262C58.7116 54.8262 60.1113 54.582 61.2832 54.0938C62.4551 53.5729 63.4967 52.9707 64.4082 52.2871V56.3398C63.9199 56.8281 63.0247 57.349 61.7227 57.9023C60.4206 58.4557 58.8743 58.7324 57.084 58.7324C54.61 58.7324 52.4128 58.1465 50.4922 56.9746C48.5716 55.8027 47.0579 54.2565 45.9512 52.3359C44.877 50.3828 44.3398 48.2507 44.3398 45.9395C44.3398 43.6283 44.877 41.4961 45.9512 39.543C47.0579 37.5898 48.5716 36.0273 50.4922 34.8555C52.4128 33.6836 54.61 33.0977 57.084 33.0977ZM144.145 33.0977C146.26 33.0977 148.165 33.6185 149.857 34.6602C151.583 35.6693 152.95 37.1016 153.959 38.957C155.001 40.7799 155.521 42.9284 155.521 45.4023C155.521 48.0716 155.001 50.4154 153.959 52.4336C152.95 54.4193 151.55 55.9655 149.76 57.0723C148.002 58.179 146 58.7324 143.754 58.7324C142.354 58.7324 140.922 58.3581 139.457 57.6094C138.025 56.8607 136.788 55.9004 135.746 54.7285V69.7188H131.742V33.5859H135.746V37.7363C136.592 36.4342 137.732 35.3438 139.164 34.4648C140.629 33.5534 142.289 33.0977 144.145 33.0977ZM143.51 37.0039C142.045 37.0039 140.71 37.3783 139.506 38.127C138.334 38.8757 137.406 39.9173 136.723 41.252C136.072 42.554 135.746 44.084 135.746 45.8418L135.795 50.5293C136.837 51.7988 137.927 52.8405 139.066 53.6543C140.206 54.4355 141.524 54.8262 143.021 54.8262C144.779 54.8262 146.277 54.3704 147.514 53.459C148.751 52.5475 149.695 51.3757 150.346 49.9434C151.029 48.4785 151.371 46.9648 151.371 45.4023C151.371 43.8073 151.046 42.3913 150.395 41.1543C149.743 39.8848 148.832 38.8757 147.66 38.127C146.488 37.3783 145.105 37.0039 143.51 37.0039ZM172.172 33.0977C174.678 33.0977 176.762 33.6185 178.422 34.6602C180.082 35.7018 181.319 37.1178 182.133 38.9082C182.979 40.6986 183.402 42.7168 183.402 44.9629V47.3555H164.652C164.848 48.7227 165.32 49.9759 166.068 51.1152C166.817 52.2546 167.794 53.166 168.998 53.8496C170.202 54.5007 171.586 54.8262 173.148 54.8262C174.906 54.8262 176.55 54.3867 178.08 53.5078C179.61 52.5964 180.896 51.6035 181.938 50.5293L181.889 54.875C181.433 55.4284 180.749 56.0143 179.838 56.6328C178.959 57.2188 177.934 57.707 176.762 58.0977C175.622 58.5208 174.418 58.7324 173.148 58.7324C170.674 58.7324 168.477 58.1465 166.557 56.9746C164.636 55.8027 163.122 54.2565 162.016 52.3359C160.941 50.3828 160.404 48.2507 160.404 45.9395C160.404 43.6283 160.909 41.4961 161.918 39.543C162.927 37.5898 164.311 36.0273 166.068 34.8555C167.859 33.6836 169.893 33.0977 172.172 33.0977ZM172.172 37.0039C170.154 37.0039 168.493 37.6875 167.191 39.0547C165.889 40.3893 165.076 42.0169 164.75 43.9375H179.447C179.285 42.3424 178.829 41.0404 178.08 40.0312C177.364 39.0221 176.485 38.2734 175.443 37.7852C174.402 37.2643 173.311 37.0039 172.172 37.0039ZM212.064 22.8438V58H208.061V53.8496C207.214 55.1517 206.059 56.291 204.594 57.2676C203.161 58.2441 201.518 58.7324 199.662 58.7324C197.579 58.7324 195.674 58.2116 193.949 57.1699C192.224 56.0957 190.84 54.6146 189.799 52.7266C188.79 50.8385 188.285 48.6576 188.285 46.1836C188.285 43.4818 188.79 41.1543 189.799 39.2012C190.84 37.248 192.257 35.7507 194.047 34.709C195.837 33.6348 197.839 33.0977 200.053 33.0977C201.452 33.0977 202.868 33.4395 204.301 34.123C205.766 34.7741 207.019 35.6855 208.061 36.8574V22.8438H212.064ZM200.785 37.1016C199.027 37.1016 197.53 37.541 196.293 38.4199C195.056 39.2663 194.096 40.373 193.412 41.7402C192.761 43.1074 192.436 44.5885 192.436 46.1836C192.436 47.7461 192.761 49.1947 193.412 50.5293C194.063 51.8314 194.975 52.873 196.146 53.6543C197.351 54.4355 198.734 54.8262 200.297 54.8262C201.794 54.8262 203.129 54.4355 204.301 53.6543C205.473 52.873 206.4 51.7988 207.084 50.4316C207.768 49.0319 208.093 47.4694 208.061 45.7441L208.012 41.0566C207.003 39.7871 205.912 38.8105 204.74 38.127C203.601 37.4434 202.283 37.1016 200.785 37.1016Z" fill="#050505"/>
<path d="M82.0352 33.0977C84.5091 33.0977 86.7064 33.6836 88.627 34.8555C90.5475 36.0273 92.0449 37.5898 93.1191 39.543C94.2259 41.4961 94.7793 43.6283 94.7793 45.9395C94.7793 48.2507 94.2259 50.3828 93.1191 52.3359C92.0449 54.2565 90.5475 55.8027 88.627 56.9746C86.7064 58.1465 84.5091 58.7324 82.0352 58.7324C79.5612 58.7324 77.3639 58.1465 75.4434 56.9746C73.5228 55.8027 72.0091 54.2565 70.9023 52.3359C69.8281 50.3828 69.291 48.2507 69.291 45.9395C69.291 43.6283 69.8281 41.4961 70.9023 39.543C72.0091 37.5898 73.5228 36.0273 75.4434 34.8555C77.3639 33.6836 79.5612 33.0977 82.0352 33.0977ZM82.0352 37.0039C80.3099 37.0039 78.7962 37.4271 77.4941 38.2734C76.1921 39.0872 75.1829 40.1777 74.4668 41.5449C73.7832 42.8796 73.4414 44.3444 73.4414 45.9395C73.4414 47.502 73.7832 48.9668 74.4668 50.334C75.1829 51.6686 76.1921 52.7591 77.4941 53.6055C78.7962 54.4193 80.3099 54.8262 82.0352 54.8262C83.793 54.8262 85.3066 54.4193 86.5762 53.6055C87.8783 52.7591 88.8711 51.6686 89.5547 50.334C90.2708 48.9668 90.6289 47.502 90.6289 45.9395C90.6289 44.3444 90.2708 42.8796 89.5547 41.5449C88.8711 40.1777 87.8783 39.0872 86.5762 38.2734C85.3066 37.4271 83.793 37.0039 82.0352 37.0039ZM112.406 33.0977C114.88 33.0977 117.077 33.6836 118.998 34.8555C120.919 36.0273 122.416 37.5898 123.49 39.543C124.597 41.4961 125.15 43.6283 125.15 45.9395C125.15 48.2507 124.597 50.3828 123.49 52.3359C122.416 54.2565 120.919 55.8027 118.998 56.9746C117.077 58.1465 114.88 58.7324 112.406 58.7324C109.932 58.7324 107.735 58.1465 105.814 56.9746C103.894 55.8027 102.38 54.2565 101.273 52.3359C100.199 50.3828 99.6621 48.2507 99.6621 45.9395C99.6621 43.6283 100.199 41.4961 101.273 39.543C102.38 37.5898 103.894 36.0273 105.814 34.8555C107.735 33.6836 109.932 33.0977 112.406 33.0977ZM112.406 37.0039C110.681 37.0039 109.167 37.4271 107.865 38.2734C106.563 39.0872 105.554 40.1777 104.838 41.5449C104.154 42.8796 103.812 44.3444 103.812 45.9395C103.812 47.502 104.154 48.9668 104.838 50.334C105.554 51.6686 106.563 52.7591 107.865 53.6055C109.167 54.4193 110.681 54.8262 112.406 54.8262C114.164 54.8262 115.678 54.4193 116.947 53.6055C118.249 52.7591 119.242 51.6686 119.926 50.334C120.642 48.9668 121 47.502 121 45.9395C121 44.3444 120.642 42.8796 119.926 41.5449C119.242 40.1777 118.249 39.0872 116.947 38.2734C115.678 37.4271 114.164 37.0039 112.406 37.0039Z" fill="#60BFA0"/>
<path d="M53 80.4814L389 81.4814" stroke="#BFC9C3" stroke-width="1.5" stroke-linecap="round" stroke-dasharray="6 6"/>
<line x1="-1.24857" y1="91.6792" x2="268.262" y2="92.1945" stroke="#BFC9C3" stroke-width="1.5" stroke-linecap="round"/>
</svg>
