<svg width="375" height="812" viewBox="0 0 375 812" fill="none" xmlns="http://www.w3.org/2000/svg">
<g clip-path="url(#clip0_2863_22138)">
<rect width="375" height="812" fill="#FBFCFF"/>
<path d="M290.5 73.5L374.5 41.5" stroke="#DBE5DF" stroke-dasharray="6 6"/>
<path d="M310 55.5L373.5 34" stroke="#CEE9DC"/>
<path d="M271 91.5L373.5 53.5" stroke="#CEE9DC"/>
<path d="M8 38L96 5" stroke="#DBE5DF" stroke-dasharray="6 6"/>
<path d="M12 24L86.5 0.5" stroke="#CEE9DC"/>
<path d="M43 34L140 0.5" stroke="#CEE9DC"/>
<path d="M-1 122L93 86" stroke="#CEE9DC"/>
<path d="M32 119L162 68" stroke="#DBE5DF" stroke-dasharray="6 6"/>
<path d="M12 137L125 94" stroke="#CEE9DC"/>
<path d="M191 164.5L279 131.5" stroke="#DBE5DF" stroke-dasharray="6 6"/>
<path d="M195 150.5L269.5 127" stroke="#CEE9DC"/>
<path d="M226 160.5L323 127" stroke="#CEE9DC"/>
<path d="M307.5 213.5L391.5 181.5" stroke="#DBE5DF" stroke-dasharray="6 6"/>
<path d="M327 195.5L390.5 174" stroke="#CEE9DC"/>
<path d="M288 231.5L390.5 193.5" stroke="#CEE9DC"/>
<path d="M-23 228L71 192" stroke="#CEE9DC"/>
<path d="M10 225L140 174" stroke="#DBE5DF" stroke-dasharray="6 6"/>
<path d="M-10 243L103 200" stroke="#CEE9DC"/>
<path d="M290.5 322.5L374.5 290.5" stroke="#DBE5DF" stroke-dasharray="6 6"/>
<path d="M310 304.5L373.5 283" stroke="#CEE9DC"/>
<path d="M271 340.5L373.5 302.5" stroke="#CEE9DC"/>
<path d="M-1 371L93 335" stroke="#CEE9DC"/>
<path d="M32 368L162 317" stroke="#DBE5DF" stroke-dasharray="6 6"/>
<path d="M12 386L125 343" stroke="#CEE9DC"/>
<path d="M191 413.5L279 380.5" stroke="#DBE5DF" stroke-dasharray="6 6"/>
<path d="M195 399.5L269.5 376" stroke="#CEE9DC"/>
<path d="M226 409.5L323 376" stroke="#CEE9DC"/>
<path d="M307.5 462.5L391.5 430.5" stroke="#DBE5DF" stroke-dasharray="6 6"/>
<path d="M327 444.5L390.5 423" stroke="#CEE9DC"/>
<path d="M288 480.5L390.5 442.5" stroke="#CEE9DC"/>
<path d="M-23 477L71 441" stroke="#CEE9DC"/>
<path d="M10 474L140 423" stroke="#DBE5DF" stroke-dasharray="6 6"/>
<path d="M-10 492L103 449" stroke="#CEE9DC"/>
<path d="M290.5 605L374.5 573" stroke="#DBE5DF" stroke-dasharray="6 6"/>
<path d="M310 587L373.5 565.5" stroke="#CEE9DC"/>
<path d="M271 623L373.5 585" stroke="#CEE9DC"/>
<path d="M8 569.5L96 536.5" stroke="#DBE5DF" stroke-dasharray="6 6"/>
<path d="M12 555.5L86.5 532" stroke="#CEE9DC"/>
<path d="M43 565.5L140 532" stroke="#CEE9DC"/>
<path d="M-1 653.5L93 617.5" stroke="#CEE9DC"/>
<path d="M32 650.5L162 599.5" stroke="#DBE5DF" stroke-dasharray="6 6"/>
<path d="M12 668.5L125 625.5" stroke="#CEE9DC"/>
<path d="M191 696L279 663" stroke="#DBE5DF" stroke-dasharray="6 6"/>
<path d="M195 682L269.5 658.5" stroke="#CEE9DC"/>
<path d="M226 692L323 658.5" stroke="#CEE9DC"/>
<path d="M307.5 745L391.5 713" stroke="#DBE5DF" stroke-dasharray="6 6"/>
<path d="M327 727L390.5 705.5" stroke="#CEE9DC"/>
<path d="M288 763L390.5 725" stroke="#CEE9DC"/>
<path d="M-23 759.5L71 723.5" stroke="#CEE9DC"/>
<path d="M10 756.5L140 705.5" stroke="#DBE5DF" stroke-dasharray="6 6"/>
<path d="M-10 774.5L103 731.5" stroke="#CEE9DC"/>
<path d="M153.483 742.803C156.004 742.803 157.931 741.309 158.39 739.006L158.407 738.922H156.888L156.863 738.997C156.337 740.583 155.169 741.417 153.483 741.417C151.088 741.417 149.528 739.506 149.528 736.577V736.569C149.528 733.64 151.08 731.745 153.483 731.745C155.178 731.745 156.363 732.596 156.83 734.057L156.888 734.24H158.407L158.39 734.157C157.931 731.879 155.987 730.36 153.483 730.36C150.129 730.36 147.984 732.78 147.984 736.569V736.577C147.984 740.366 150.137 742.803 153.483 742.803ZM163.556 742.769C165.951 742.769 167.57 741.033 167.57 738.263V738.246C167.57 735.476 165.943 733.756 163.548 733.756C161.153 733.756 159.534 735.484 159.534 738.246V738.263C159.534 741.025 161.144 742.769 163.556 742.769ZM163.564 741.484C162.029 741.484 161.019 740.307 161.019 738.263V738.246C161.019 736.218 162.037 735.042 163.548 735.042C165.083 735.042 166.085 736.21 166.085 738.246V738.263C166.085 740.299 165.092 741.484 163.564 741.484ZM169.039 742.602H170.491V737.245C170.491 735.926 171.225 735.142 172.352 735.142C172.702 735.142 173.011 735.183 173.128 735.225V733.815C173.011 733.798 172.794 733.756 172.544 733.756C171.567 733.756 170.816 734.391 170.524 735.392H170.491V733.923H169.039V742.602ZM174.313 742.602H175.765V737.495C175.765 736.018 176.658 735.042 178.027 735.042C179.362 735.042 180.021 735.818 180.021 737.228V742.602H181.473V736.969C181.473 734.991 180.372 733.756 178.469 733.756C177.15 733.756 176.266 734.349 175.798 735.158H175.765V733.923H174.313V742.602ZM186.898 742.769C188.792 742.769 190.211 741.634 190.494 740.199L190.511 740.115H189.084L189.059 740.191C188.809 740.933 188.032 741.484 186.931 741.484C185.387 741.484 184.402 740.441 184.369 738.655H190.619V738.121C190.619 735.517 189.176 733.756 186.806 733.756C184.436 733.756 182.9 735.601 182.9 738.288V738.296C182.9 741.025 184.402 742.769 186.898 742.769ZM186.797 735.042C188.066 735.042 189 735.834 189.142 737.52H184.394C184.553 735.901 185.537 735.042 186.797 735.042ZM192.163 742.602H193.615V730.56H192.163V742.602ZM195.652 742.602H197.104V730.56H195.652V742.602ZM198.347 742.602H200.6L201.618 739.49H206.1L207.118 742.602H209.379L205.073 730.56H202.653L198.347 742.602ZM203.838 732.705H203.888L205.557 737.829H202.161L203.838 732.705ZM210.456 745.523H212.534V741.109H212.576C213.076 742.143 214.086 742.778 215.346 742.778C217.566 742.778 218.985 741.025 218.985 738.188V738.179C218.985 735.325 217.566 733.573 215.321 733.573C214.053 733.573 213.085 734.224 212.576 735.284H212.534V733.756H210.456V745.523ZM214.704 741.025C213.418 741.025 212.517 739.915 212.517 738.188V738.179C212.517 736.444 213.418 735.325 214.704 735.325C216.03 735.325 216.865 736.41 216.865 738.179V738.188C216.865 739.932 216.03 741.025 214.704 741.025ZM220.32 745.523H222.398V741.109H222.44C222.94 742.143 223.95 742.778 225.21 742.778C227.43 742.778 228.849 741.025 228.849 738.188V738.179C228.849 735.325 227.43 733.573 225.185 733.573C223.917 733.573 222.949 734.224 222.44 735.284H222.398V733.756H220.32V745.523ZM224.568 741.025C223.282 741.025 222.381 739.915 222.381 738.188V738.179C222.381 736.444 223.282 735.325 224.568 735.325C225.894 735.325 226.729 736.41 226.729 738.179V738.188C226.729 739.932 225.894 741.025 224.568 741.025ZM230.393 742.602H234.79C238.396 742.602 240.515 740.366 240.515 736.552V736.535C240.515 732.73 238.379 730.56 234.79 730.56H230.393V742.602ZM232.546 740.783V732.379H234.565C236.96 732.379 238.32 733.857 238.32 736.544V736.56C238.32 739.306 236.985 740.783 234.565 740.783H232.546ZM245.906 742.778C248.218 742.778 249.52 741.409 249.795 740.049L249.82 739.957H247.876L247.859 740.015C247.659 740.608 246.983 741.159 245.948 741.159C244.596 741.159 243.745 740.241 243.711 738.688H249.904V738.021C249.904 735.35 248.335 733.573 245.806 733.573C243.277 733.573 241.65 735.409 241.65 738.196V738.204C241.65 741.017 243.252 742.778 245.906 742.778ZM245.831 735.2C246.933 735.2 247.734 735.901 247.884 737.303H243.736C243.903 735.943 244.73 735.2 245.831 735.2ZM253.3 742.602H255.587L258.699 733.756H256.53L254.485 740.675H254.435L252.382 733.756H250.171L253.3 742.602Z" fill="#707070"/>
<path fill-rule="evenodd" clip-rule="evenodd" d="M118.205 725C116.435 725 115 726.435 115 728.205V745.295C115 747.065 116.435 748.5 118.205 748.5L119.003 748.5V740.372C119.003 739.784 119.149 739.205 119.428 738.687L125.879 726.68C126.287 725.921 127.376 725.921 127.784 726.681L134.431 739.082C134.57 739.341 134.643 739.63 134.643 739.923V748.5L135.295 748.5C137.065 748.5 138.5 747.065 138.5 745.295V728.205C138.5 726.435 137.065 725 135.295 725H118.205ZM133.546 748.5V739.933L127.391 736.296V747.889V747.936C127.391 748.246 127.644 748.498 127.954 748.5L133.546 748.5ZM127.384 735.082V728.358L132.768 738.188L127.643 735.166C127.643 735.166 127.567 735.124 127.514 735.107C127.465 735.092 127.384 735.082 127.384 735.082ZM130.675 748.171C131.233 748.171 131.685 747.635 131.685 746.973C131.685 746.311 131.233 745.774 130.675 745.774C130.116 745.774 129.664 746.311 129.664 746.973C129.664 747.635 130.116 748.171 130.675 748.171ZM131.779 740.889C131.779 740.602 132.012 740.369 132.299 740.369C132.586 740.369 132.819 740.602 132.819 740.889V744.535C132.819 744.822 132.586 745.055 132.299 745.055C132.012 745.055 131.779 744.822 131.779 744.535V740.889ZM130.652 739.382C130.366 739.382 130.134 739.614 130.134 739.9V743.629C130.134 743.915 130.366 744.147 130.652 744.147C130.938 744.147 131.169 743.915 131.169 743.629V739.9C131.169 739.614 130.938 739.382 130.652 739.382ZM128.519 739.085C128.519 738.795 128.754 738.56 129.044 738.56C129.335 738.56 129.57 738.795 129.57 739.085V742.83C129.57 743.12 129.335 743.356 129.044 743.356C128.754 743.356 128.519 743.12 128.519 742.83V739.085Z" fill="#707070"/>
<path d="M93.417 253.895C94.9735 253.895 96.4239 254.124 97.7681 254.583C99.1124 255.007 100.085 255.448 100.687 255.907V260.567C99.9437 260.002 98.9355 259.455 97.662 258.925C96.3885 258.396 95.0796 258.131 93.7354 258.131C92.0727 258.131 90.8168 258.519 89.9678 259.296C89.1542 260.073 88.7474 260.885 88.7474 261.732C88.7474 262.403 88.9773 263.091 89.4372 263.797C89.9325 264.468 90.7815 265.015 91.9842 265.439L96.4416 267.027C98.1749 267.628 99.4662 268.492 100.315 269.622C101.164 270.752 101.589 272.076 101.589 273.594C101.589 275.076 101.164 276.436 100.315 277.671C99.5015 278.907 98.3518 279.895 96.866 280.637C95.4157 281.343 93.7354 281.696 91.8251 281.696C90.7992 281.696 89.7202 281.555 88.5882 281.272C87.4916 281.025 86.501 280.725 85.6167 280.372C84.7323 279.984 84.0778 279.648 83.6533 279.366V274.706C84.1486 275.059 84.8384 275.465 85.7228 275.924C86.6425 276.347 87.6154 276.718 88.6413 277.036C89.6671 277.318 90.6223 277.459 91.5067 277.459C93.1693 277.459 94.4782 277.089 95.4333 276.347C96.4239 275.606 96.9191 274.688 96.9191 273.594C96.9191 272.746 96.5831 272.076 95.9109 271.581C95.2742 271.087 94.3367 270.611 93.0986 270.152L89.1719 268.722C87.1201 267.945 85.7582 266.974 85.086 265.809C84.4139 264.609 84.0778 263.25 84.0778 261.732C84.0778 259.473 84.9268 257.601 86.6249 256.119C88.3229 254.636 90.5869 253.895 93.417 253.895ZM120.214 253.895C122.159 253.895 123.84 254.212 125.255 254.848C126.67 255.448 127.643 255.995 128.173 256.489V260.885C127.183 260.143 126.051 259.508 124.777 258.978C123.504 258.413 121.983 258.131 120.214 258.131C118.339 258.131 116.694 258.59 115.279 259.508C113.864 260.39 112.767 261.573 111.989 263.056C111.246 264.503 110.875 266.092 110.875 267.822C110.875 269.516 111.246 271.105 111.989 272.588C112.767 274.035 113.864 275.218 115.279 276.136C116.694 277.018 118.339 277.459 120.214 277.459C121.983 277.459 123.504 277.195 124.777 276.665C126.051 276.1 127.183 275.447 128.173 274.706V279.101C127.643 279.631 126.67 280.195 125.255 280.795C123.84 281.396 122.159 281.696 120.214 281.696C117.525 281.696 115.138 281.06 113.05 279.789C110.963 278.518 109.318 276.842 108.115 274.759C106.948 272.641 106.364 270.328 106.364 267.822C106.364 265.315 106.948 263.003 108.115 260.885C109.318 258.766 110.963 257.072 113.05 255.801C115.138 254.53 117.525 253.895 120.214 253.895ZM214.826 253.895C217.125 253.895 219.195 254.46 221.034 255.589C222.909 256.684 224.395 258.237 225.491 260.249C226.624 262.226 227.189 264.556 227.189 267.239C227.189 270.134 226.624 272.676 225.491 274.865C224.395 277.018 222.873 278.695 220.928 279.895C219.018 281.096 216.842 281.696 214.401 281.696C212.88 281.696 211.324 281.29 209.731 280.478C208.175 279.666 206.831 278.624 205.699 277.353V293.611H201.347V254.424H205.699V258.925C206.618 257.513 207.857 256.331 209.413 255.377C211.005 254.389 212.809 253.895 214.826 253.895ZM214.136 258.131C212.544 258.131 211.093 258.537 209.785 259.349C208.511 260.161 207.503 261.291 206.76 262.738C206.053 264.15 205.699 265.809 205.699 267.716L205.752 272.799C206.884 274.176 208.069 275.306 209.307 276.188C210.545 277.036 211.978 277.459 213.605 277.459C215.515 277.459 217.143 276.965 218.487 275.977C219.832 274.988 220.857 273.717 221.565 272.164C222.307 270.575 222.679 268.934 222.679 267.239C222.679 265.509 222.326 263.974 221.618 262.632C220.91 261.255 219.92 260.161 218.646 259.349C217.372 258.537 215.869 258.131 214.136 258.131ZM245.284 253.895C248.007 253.895 250.272 254.46 252.076 255.589C253.88 256.719 255.224 258.255 256.109 260.196C257.028 262.138 257.488 264.327 257.488 266.763V269.357H237.112C237.325 270.84 237.838 272.199 238.651 273.435C239.465 274.671 240.526 275.659 241.835 276.4C243.143 277.106 244.647 277.459 246.345 277.459C248.255 277.459 250.042 276.983 251.704 276.03C253.367 275.041 254.765 273.964 255.897 272.799L255.844 277.512C255.348 278.113 254.605 278.748 253.615 279.419C252.66 280.054 251.546 280.584 250.272 281.007C249.033 281.466 247.725 281.696 246.345 281.696C243.656 281.696 241.269 281.06 239.182 279.789C237.094 278.518 235.449 276.842 234.247 274.759C233.079 272.641 232.495 270.328 232.495 267.822C232.495 265.315 233.044 263.003 234.141 260.885C235.237 258.766 236.741 257.072 238.651 255.801C240.597 254.53 242.807 253.895 245.284 253.895ZM245.284 258.131C243.091 258.131 241.286 258.872 239.871 260.355C238.456 261.803 237.573 263.568 237.218 265.651H253.19C253.014 263.921 252.518 262.509 251.704 261.414C250.926 260.32 249.971 259.508 248.839 258.978C247.707 258.413 246.522 258.131 245.284 258.131ZM288.636 242.774V280.901H284.286V276.4C283.365 277.812 282.11 279.048 280.518 280.107C278.961 281.166 277.175 281.696 275.158 281.696C272.895 281.696 270.824 281.131 268.95 280.001C267.075 278.836 265.571 277.23 264.44 275.182C263.343 273.135 262.795 270.77 262.795 268.086C262.795 265.156 263.343 262.632 264.44 260.514C265.571 258.396 267.111 256.772 269.056 255.642C271.002 254.477 273.177 253.895 275.583 253.895C277.104 253.895 278.642 254.265 280.2 255.007C281.792 255.713 283.153 256.701 284.286 257.972V242.774H288.636ZM276.379 258.237C274.468 258.237 272.841 258.714 271.497 259.667C270.153 260.585 269.11 261.785 268.366 263.268C267.659 264.75 267.306 266.357 267.306 268.086C267.306 269.781 267.659 271.352 268.366 272.799C269.074 274.212 270.065 275.341 271.337 276.188C272.647 277.036 274.15 277.459 275.848 277.459C277.475 277.459 278.926 277.036 280.2 276.188C281.473 275.341 282.481 274.176 283.224 272.693C283.967 271.175 284.321 269.481 284.286 267.61L284.233 262.526C283.136 261.149 281.95 260.09 280.677 259.349C279.439 258.608 278.007 258.237 276.379 258.237Z" fill="#050505"/>
<path d="M147.329 253.895C150.018 253.895 152.405 254.53 154.493 255.801C156.58 257.072 158.207 258.766 159.374 260.885C160.577 263.003 161.179 265.315 161.179 267.822C161.179 270.328 160.577 272.64 159.374 274.759C158.207 276.842 156.58 278.518 154.493 279.789C152.405 281.06 150.018 281.696 147.329 281.696C144.64 281.696 142.253 281.06 140.166 279.789C138.078 278.518 136.433 276.842 135.231 274.759C134.063 272.64 133.479 270.328 133.479 267.822C133.479 265.315 134.063 263.003 135.231 260.885C136.433 258.766 138.078 257.072 140.166 255.801C142.253 254.53 144.64 253.895 147.329 253.895ZM147.329 258.131C145.454 258.131 143.809 258.59 142.394 259.508C140.979 260.39 139.882 261.573 139.104 263.056C138.361 264.503 137.99 266.092 137.99 267.822C137.99 269.516 138.361 271.105 139.104 272.588C139.882 274.035 140.979 275.218 142.394 276.136C143.809 277.018 145.454 277.459 147.329 277.459C149.239 277.459 150.884 277.018 152.264 276.136C153.679 275.218 154.758 274.035 155.501 272.588C156.279 271.105 156.668 269.516 156.668 267.822C156.668 266.092 156.279 264.503 155.501 263.056C154.758 261.573 153.679 260.39 152.264 259.508C150.884 258.59 149.239 258.131 147.329 258.131ZM180.334 253.895C183.023 253.895 185.411 254.53 187.498 255.801C189.585 257.072 191.212 258.766 192.379 260.885C193.582 263.003 194.183 265.315 194.183 267.822C194.183 270.328 193.582 272.64 192.379 274.759C191.212 276.842 189.585 278.518 187.498 279.789C185.411 281.06 183.023 281.696 180.334 281.696C177.646 281.696 175.258 281.06 173.171 279.789C171.084 278.518 169.439 276.842 168.236 274.759C167.069 272.64 166.485 270.328 166.485 267.822C166.485 265.315 167.069 263.003 168.236 260.885C169.439 258.766 171.084 257.072 173.171 255.801C175.258 254.53 177.646 253.895 180.334 253.895ZM180.334 258.131C178.459 258.131 176.814 258.59 175.399 259.508C173.984 260.39 172.888 261.573 172.11 263.056C171.367 264.503 170.995 266.092 170.995 267.822C170.995 269.516 171.367 271.105 172.11 272.588C172.888 274.035 173.984 275.218 175.399 276.136C176.814 277.018 178.459 277.459 180.334 277.459C182.245 277.459 183.89 277.018 185.269 276.136C186.684 275.218 187.763 274.035 188.506 272.588C189.284 271.105 189.673 269.516 189.673 267.822C189.673 266.092 189.284 264.503 188.506 263.056C187.763 261.573 186.684 260.39 185.269 259.508C183.89 258.59 182.245 258.131 180.334 258.131Z" fill="#60BFA0"/>
<path d="M158.352 272.225H167.939M126.643 243.554L135.757 225.439C137.048 222.873 139.678 221.254 142.555 221.254H160.926C163.57 221.254 166.024 222.624 167.408 224.872L177.432 241.16C178.383 242.705 179.856 243.859 181.586 244.414L192.003 247.757C195.148 248.766 197.281 251.687 197.281 254.984V261.38V265.357C197.281 268.674 194.924 271.442 191.791 272.085" stroke="#60BFA0" stroke-width="4.5" stroke-linecap="round"/>
</g>
<defs>
<clipPath id="clip0_2863_22138">
<rect width="375" height="812" fill="white"/>
</clipPath>
</defs>
</svg>
