<svg width="42" height="42" viewBox="0 0 42 42" fill="none" xmlns="http://www.w3.org/2000/svg">
<circle cx="21" cy="21" r="21" fill="#006C53"/>
<path d="M27 17.701C27 16.189 26.3679 14.7389 25.2426 13.6698C24.1174 12.6006 22.5913 12 21 12C19.4087 12 17.8826 12.6006 16.7574 13.6698C15.6321 14.7389 15 16.189 15 17.701C15 24.3522 12 26.2525 12 26.2525H30C30 26.2525 27 24.3522 27 17.701Z" fill="white" stroke="white" stroke-width="2" stroke-linecap="round" stroke-linejoin="round"/>
<path d="M22.73 30.0527C22.5542 30.3407 22.3019 30.5797 21.9982 30.7459C21.6946 30.9121 21.3504 30.9995 21 30.9995C20.6496 30.9995 20.3054 30.9121 20.0018 30.7459C19.6982 30.5797 19.4458 30.3407 19.27 30.0527" fill="white"/>
<path d="M22.73 30.0527C22.5542 30.3407 22.3019 30.5797 21.9982 30.7459C21.6946 30.9121 21.3504 30.9995 21 30.9995C20.6496 30.9995 20.3054 30.9121 20.0018 30.7459C19.6982 30.5797 19.4458 30.3407 19.27 30.0527" stroke="white" stroke-width="2" stroke-linecap="round" stroke-linejoin="round"/>
</svg>
