<svg width="78" height="78" viewBox="0 0 78 78" fill="none" xmlns="http://www.w3.org/2000/svg">
<g filter="url(#filter0_d_2193_12717)">
<circle cx="39" cy="35" r="33.5" fill="white" stroke="#60BFA0" stroke-width="3"/>
<path d="M55.9615 31.107L51.9125 22.6984C51.4126 21.6601 50.362 21 49.2096 21H37.0714C36.1408 21 35.2629 21.4319 34.6949 22.169L28.4101 30.3263C28.0194 30.8334 27.4767 31.2022 26.8613 31.3789L20.1723 33.2989C18.8862 33.6681 18 34.8444 18 36.1825V42.6609C18 43.4566 18.645 44.1016 19.4407 44.1016V44.1016C20.0197 44.1016 20.5426 44.4489 20.8531 44.9376C21.5808 46.0831 23.2065 48 25.9367 48C27.8969 48 29.1739 47.0119 29.9587 46.0307C30.7816 45.0019 31.9274 44.1016 33.2448 44.1016H42.102C43.29 44.1016 44.3534 44.8237 45.1 45.7478C45.9601 46.8121 47.3551 48 49.2977 48C51.3687 48 52.7395 46.6499 53.517 45.5387C54.0859 44.7257 54.9692 44.1016 55.9615 44.1016V44.1016" stroke="#60BFA0" stroke-width="3"/>
<path d="M59.5769 31V43" stroke="#60BFA0" stroke-width="3" stroke-linecap="round" stroke-linejoin="round"/>
<path d="M54.1538 37H65" stroke="#60BFA0" stroke-width="3" stroke-linecap="round" stroke-linejoin="round"/>
</g>
<defs>
<filter id="filter0_d_2193_12717" x="0" y="0" width="78" height="78" filterUnits="userSpaceOnUse" color-interpolation-filters="sRGB">
<feFlood flood-opacity="0" result="BackgroundImageFix"/>
<feColorMatrix in="SourceAlpha" type="matrix" values="0 0 0 0 0 0 0 0 0 0 0 0 0 0 0 0 0 0 127 0" result="hardAlpha"/>
<feOffset dy="4"/>
<feGaussianBlur stdDeviation="2"/>
<feComposite in2="hardAlpha" operator="out"/>
<feColorMatrix type="matrix" values="0 0 0 0 0 0 0 0 0 0 0 0 0 0 0 0 0 0 0.25 0"/>
<feBlend mode="normal" in2="BackgroundImageFix" result="effect1_dropShadow_2193_12717"/>
<feBlend mode="normal" in="SourceGraphic" in2="effect1_dropShadow_2193_12717" result="shape"/>
</filter>
</defs>
</svg>
