<svg width="375" height="775" viewBox="0 0 375 775" fill="none" xmlns="http://www.w3.org/2000/svg">
<path d="M290.5 73.5L374.5 41.5" stroke="#DBE5DF" stroke-dasharray="6 6"/>
<path d="M310 55.5L373.5 34" stroke="#CEE9DC"/>
<path d="M271 91.5L373.5 53.5" stroke="#CEE9DC"/>
<path d="M8 38L96 5" stroke="#DBE5DF" stroke-dasharray="6 6"/>
<path d="M12 24L86.5 0.5" stroke="#CEE9DC"/>
<path d="M43 34L140 0.5" stroke="#CEE9DC"/>
<path d="M-1 122L93 86" stroke="#CEE9DC"/>
<path d="M32 119L162 68" stroke="#DBE5DF" stroke-dasharray="6 6"/>
<path d="M12 137L125 94" stroke="#CEE9DC"/>
<path d="M191 164.5L279 131.5" stroke="#DBE5DF" stroke-dasharray="6 6"/>
<path d="M195 150.5L269.5 127" stroke="#CEE9DC"/>
<path d="M226 160.5L323 127" stroke="#CEE9DC"/>
<path d="M307.5 213.5L391.5 181.5" stroke="#DBE5DF" stroke-dasharray="6 6"/>
<path d="M327 195.5L390.5 174" stroke="#CEE9DC"/>
<path d="M288 231.5L390.5 193.5" stroke="#CEE9DC"/>
<path d="M-23 228L71 192" stroke="#CEE9DC"/>
<path d="M10 225L140 174" stroke="#DBE5DF" stroke-dasharray="6 6"/>
<path d="M-10 243L103 200" stroke="#CEE9DC"/>
<path d="M290.5 322.5L374.5 290.5" stroke="#DBE5DF" stroke-dasharray="6 6"/>
<path d="M310 304.5L373.5 283" stroke="#CEE9DC"/>
<path d="M271 340.5L373.5 302.5" stroke="#CEE9DC"/>
<path d="M-1 371L93 335" stroke="#CEE9DC"/>
<path d="M32 368L162 317" stroke="#DBE5DF" stroke-dasharray="6 6"/>
<path d="M12 386L125 343" stroke="#CEE9DC"/>
<path d="M191 413.5L279 380.5" stroke="#DBE5DF" stroke-dasharray="6 6"/>
<path d="M195 399.5L269.5 376" stroke="#CEE9DC"/>
<path d="M226 409.5L323 376" stroke="#CEE9DC"/>
<path d="M307.5 462.5L391.5 430.5" stroke="#DBE5DF" stroke-dasharray="6 6"/>
<path d="M327 444.5L390.5 423" stroke="#CEE9DC"/>
<path d="M288 480.5L390.5 442.5" stroke="#CEE9DC"/>
<path d="M-23 477L71 441" stroke="#CEE9DC"/>
<path d="M10 474L140 423" stroke="#DBE5DF" stroke-dasharray="6 6"/>
<path d="M-10 492L103 449" stroke="#CEE9DC"/>
<path d="M290.5 605L374.5 573" stroke="#DBE5DF" stroke-dasharray="6 6"/>
<path d="M310 587L373.5 565.5" stroke="#CEE9DC"/>
<path d="M271 623L373.5 585" stroke="#CEE9DC"/>
<path d="M8 569.5L96 536.5" stroke="#DBE5DF" stroke-dasharray="6 6"/>
<path d="M12 555.5L86.5 532" stroke="#CEE9DC"/>
<path d="M43 565.5L140 532" stroke="#CEE9DC"/>
<path d="M-1 653.5L93 617.5" stroke="#CEE9DC"/>
<path d="M32 650.5L162 599.5" stroke="#DBE5DF" stroke-dasharray="6 6"/>
<path d="M12 668.5L125 625.5" stroke="#CEE9DC"/>
<path d="M191 696L279 663" stroke="#DBE5DF" stroke-dasharray="6 6"/>
<path d="M195 682L269.5 658.5" stroke="#CEE9DC"/>
<path d="M226 692L323 658.5" stroke="#CEE9DC"/>
<path d="M307.5 745L391.5 713" stroke="#DBE5DF" stroke-dasharray="6 6"/>
<path d="M327 727L390.5 705.5" stroke="#CEE9DC"/>
<path d="M288 763L390.5 725" stroke="#CEE9DC"/>
<path d="M-23 759.5L71 723.5" stroke="#CEE9DC"/>
<path d="M10 756.5L140 705.5" stroke="#DBE5DF" stroke-dasharray="6 6"/>
<path d="M-10 774.5L103 731.5" stroke="#CEE9DC"/>
<path d="M93.4167 253.895C94.9733 253.895 96.4236 254.124 97.7679 254.583C99.1122 255.007 100.085 255.448 100.686 255.907V260.567C99.9434 260.002 98.9353 259.455 97.6617 258.925C96.3883 258.396 95.0793 258.131 93.7351 258.131C92.0724 258.131 90.8166 258.519 89.9676 259.296C89.154 260.073 88.7471 260.885 88.7471 261.732C88.7471 262.403 88.9771 263.091 89.437 263.797C89.9322 264.468 90.7812 265.015 91.984 265.439L96.4413 267.027C98.1747 267.628 99.4659 268.492 100.315 269.622C101.164 270.752 101.588 272.076 101.588 273.594C101.588 275.076 101.164 276.436 100.315 277.671C99.5012 278.907 98.3516 279.895 96.8658 280.637C95.4154 281.343 93.7351 281.696 91.8248 281.696C90.7989 281.696 89.72 281.555 88.5879 281.272C87.4913 281.025 86.5008 280.725 85.6164 280.372C84.732 279.984 84.0776 279.648 83.6531 279.366V274.706C84.1483 275.059 84.8381 275.465 85.7225 275.924C86.6423 276.347 87.6151 276.718 88.641 277.036C89.6669 277.318 90.622 277.459 91.5064 277.459C93.1691 277.459 94.4779 277.089 95.4331 276.347C96.4236 275.606 96.9188 274.688 96.9188 273.594C96.9188 272.746 96.5828 272.076 95.9107 271.581C95.274 271.087 94.3364 270.611 93.0983 270.152L89.1716 268.722C87.1199 267.945 85.7579 266.974 85.0858 265.809C84.4136 264.609 84.0776 263.25 84.0776 261.732C84.0776 259.473 84.9266 257.601 86.6246 256.119C88.3226 254.636 90.5867 253.895 93.4167 253.895ZM120.214 253.895C122.159 253.895 123.84 254.212 125.255 254.848C126.67 255.448 127.642 255.995 128.173 256.489V260.885C127.183 260.143 126.051 259.508 124.777 258.978C123.504 258.413 121.982 258.131 120.214 258.131C118.339 258.131 116.694 258.59 115.279 259.508C113.864 260.39 112.767 261.573 111.989 263.056C111.246 264.503 110.874 266.092 110.874 267.822C110.874 269.516 111.246 271.105 111.989 272.588C112.767 274.035 113.864 275.218 115.279 276.136C116.694 277.018 118.339 277.459 120.214 277.459C121.982 277.459 123.504 277.195 124.777 276.665C126.051 276.1 127.183 275.447 128.173 274.706V279.101C127.642 279.631 126.67 280.195 125.255 280.795C123.84 281.396 122.159 281.696 120.214 281.696C117.525 281.696 115.137 281.06 113.05 279.789C110.963 278.518 109.318 276.842 108.115 274.759C106.948 272.641 106.364 270.328 106.364 267.822C106.364 265.315 106.948 263.003 108.115 260.885C109.318 258.766 110.963 257.072 113.05 255.801C115.137 254.53 117.525 253.895 120.214 253.895ZM214.826 253.895C217.124 253.895 219.195 254.46 221.033 255.589C222.909 256.684 224.395 258.237 225.491 260.249C226.623 262.226 227.189 264.556 227.189 267.239C227.189 270.134 226.623 272.676 225.491 274.865C224.395 277.018 222.873 278.695 220.928 279.895C219.017 281.096 216.842 281.696 214.401 281.696C212.88 281.696 211.323 281.29 209.731 280.478C208.175 279.666 206.831 278.624 205.698 277.353V293.611H201.347V254.424H205.698V258.925C206.618 257.513 207.857 256.331 209.413 255.377C211.005 254.389 212.809 253.895 214.826 253.895ZM214.136 258.131C212.544 258.131 211.093 258.537 209.784 259.349C208.511 260.161 207.502 261.291 206.76 262.738C206.053 264.15 205.698 265.809 205.698 267.716L205.752 272.799C206.884 274.176 208.069 275.306 209.306 276.188C210.545 277.036 211.978 277.459 213.604 277.459C215.515 277.459 217.143 276.965 218.487 275.977C219.831 274.988 220.857 273.717 221.565 272.164C222.307 270.575 222.679 268.934 222.679 267.239C222.679 265.509 222.325 263.974 221.618 262.632C220.909 261.255 219.919 260.161 218.646 259.349C217.372 258.537 215.869 258.131 214.136 258.131ZM245.284 253.895C248.007 253.895 250.272 254.46 252.076 255.589C253.88 256.719 255.224 258.255 256.109 260.196C257.028 262.138 257.488 264.327 257.488 266.763V269.357H237.112C237.325 270.84 237.837 272.199 238.65 273.435C239.464 274.671 240.526 275.659 241.834 276.4C243.143 277.106 244.647 277.459 246.344 277.459C248.255 277.459 250.041 276.983 251.704 276.03C253.367 275.041 254.764 273.964 255.897 272.799L255.844 277.512C255.348 278.113 254.605 278.748 253.615 279.419C252.659 280.054 251.546 280.584 250.272 281.007C249.033 281.466 247.725 281.696 246.344 281.696C243.656 281.696 241.268 281.06 239.182 279.789C237.094 278.518 235.449 276.842 234.247 274.759C233.079 272.641 232.495 270.328 232.495 267.822C232.495 265.315 233.044 263.003 234.14 260.885C235.237 258.766 236.741 257.072 238.65 255.801C240.597 254.53 242.807 253.895 245.284 253.895ZM245.284 258.131C243.091 258.131 241.286 258.872 239.871 260.355C238.456 261.803 237.572 263.568 237.218 265.651H253.19C253.014 263.921 252.518 262.509 251.704 261.414C250.926 260.32 249.971 259.508 248.838 258.978C247.707 258.413 246.522 258.131 245.284 258.131ZM288.636 242.774V280.901H284.286V276.4C283.365 277.812 282.11 279.048 280.518 280.107C278.961 281.166 277.175 281.696 275.158 281.696C272.894 281.696 270.824 281.131 268.95 280.001C267.075 278.836 265.571 277.23 264.44 275.182C263.343 273.135 262.794 270.77 262.794 268.086C262.794 265.156 263.343 262.632 264.44 260.514C265.571 258.396 267.111 256.772 269.056 255.642C271.001 254.477 273.177 253.895 275.583 253.895C277.103 253.895 278.642 254.265 280.199 255.007C281.792 255.713 283.153 256.701 284.286 257.972V242.774H288.636ZM276.379 258.237C274.468 258.237 272.841 258.714 271.497 259.667C270.153 260.585 269.109 261.785 268.366 263.268C267.659 264.75 267.305 266.357 267.305 268.086C267.305 269.781 267.659 271.352 268.366 272.799C269.073 274.212 270.065 275.341 271.337 276.188C272.647 277.036 274.15 277.459 275.848 277.459C277.475 277.459 278.926 277.036 280.199 276.188C281.473 275.341 282.481 274.176 283.224 272.693C283.967 271.175 284.32 269.481 284.286 267.61L284.232 262.526C283.136 261.149 281.95 260.09 280.677 259.349C279.439 258.608 278.006 258.237 276.379 258.237Z" fill="#050505"/>
<path d="M147.329 253.895C150.018 253.895 152.405 254.53 154.493 255.801C156.58 257.072 158.207 258.766 159.374 260.885C160.577 263.003 161.179 265.315 161.179 267.822C161.179 270.328 160.577 272.64 159.374 274.759C158.207 276.842 156.58 278.518 154.493 279.789C152.405 281.06 150.018 281.696 147.329 281.696C144.64 281.696 142.253 281.06 140.166 279.789C138.078 278.518 136.433 276.842 135.231 274.759C134.063 272.64 133.479 270.328 133.479 267.822C133.479 265.315 134.063 263.003 135.231 260.885C136.433 258.766 138.078 257.072 140.166 255.801C142.253 254.53 144.64 253.895 147.329 253.895ZM147.329 258.131C145.454 258.131 143.809 258.59 142.394 259.508C140.979 260.39 139.882 261.573 139.104 263.056C138.361 264.503 137.99 266.092 137.99 267.822C137.99 269.516 138.361 271.105 139.104 272.588C139.882 274.035 140.979 275.218 142.394 276.136C143.809 277.018 145.454 277.459 147.329 277.459C149.239 277.459 150.884 277.018 152.264 276.136C153.679 275.218 154.758 274.035 155.501 272.588C156.279 271.105 156.668 269.516 156.668 267.822C156.668 266.092 156.279 264.503 155.501 263.056C154.758 261.573 153.679 260.39 152.264 259.508C150.884 258.59 149.239 258.131 147.329 258.131ZM180.334 253.895C183.023 253.895 185.411 254.53 187.498 255.801C189.585 257.072 191.212 258.766 192.379 260.885C193.582 263.003 194.183 265.315 194.183 267.822C194.183 270.328 193.582 272.64 192.379 274.759C191.212 276.842 189.585 278.518 187.498 279.789C185.411 281.06 183.023 281.696 180.334 281.696C177.646 281.696 175.258 281.06 173.171 279.789C171.084 278.518 169.439 276.842 168.236 274.759C167.069 272.64 166.485 270.328 166.485 267.822C166.485 265.315 167.069 263.003 168.236 260.885C169.439 258.766 171.084 257.072 173.171 255.801C175.258 254.53 177.646 253.895 180.334 253.895ZM180.334 258.131C178.459 258.131 176.814 258.59 175.399 259.508C173.984 260.39 172.888 261.573 172.11 263.056C171.367 264.503 170.995 266.092 170.995 267.822C170.995 269.516 171.367 271.105 172.11 272.588C172.888 274.035 173.984 275.218 175.399 276.136C176.814 277.018 178.459 277.459 180.334 277.459C182.245 277.459 183.89 277.018 185.269 276.136C186.684 275.218 187.763 274.035 188.506 272.588C189.284 271.105 189.673 269.516 189.673 267.822C189.673 266.092 189.284 264.503 188.506 263.056C187.763 261.573 186.684 260.39 185.269 259.508C183.89 258.59 182.245 258.131 180.334 258.131Z" fill="#60BFA0"/>
<path d="M158.351 272.225H167.939M126.643 243.554L135.757 225.439C137.047 222.873 139.678 221.254 142.555 221.254H160.925C163.569 221.254 166.024 222.624 167.407 224.872L177.432 241.16C178.383 242.705 179.856 243.859 181.585 244.414L192.002 247.757C195.147 248.766 197.281 251.687 197.281 254.984V261.38V265.357C197.281 268.674 194.924 271.442 191.79 272.085" stroke="#60BFA0" stroke-width="4.5" stroke-linecap="round"/>
</svg>
